<?xml version="1.0" encoding="UTF-8"?>
<!DOCTYPE svg PUBLIC "-//W3C//DTD SVG 1.1//EN" "http://www.w3.org/Graphics/SVG/1.1/DTD/svg11.dtd">
<svg version="1.1" xmlns="http://www.w3.org/2000/svg" xmlns:xlink="http://www.w3.org/1999/xlink" x="0" y="0" width="24" height="24" viewBox="0, 0, 24, 24">
  <defs>
    <clipPath id="Clip_1">
      <path d="M0.006,0.003 L23.997,0.003 L23.997,24 L0.006,24 z"/>
    </clipPath>
  </defs>
  <g id="Layer_1">
    <g clip-path="url(#Clip_1)">
      <path d="M18.29,11.994 L11.312,18.247 C11.217,18.332 11.072,18.324 10.987,18.229 L10.135,17.277 C10.05,17.183 10.058,17.037 10.152,16.953 L17.13,10.7 C17.224,10.615 17.37,10.623 17.455,10.718 L18.307,11.669 C18.392,11.764 18.385,11.909 18.29,11.994 z M8.765,15.757 L7.912,14.805 C7.827,14.711 7.835,14.565 7.93,14.481 L14.907,8.228 C15.002,8.143 15.148,8.151 15.232,8.245 L16.085,9.197 C16.17,9.292 16.162,9.437 16.067,9.522 L9.089,15.775 C8.995,15.859 8.85,15.851 8.765,15.757 z M6.543,13.285 L5.69,12.333 C5.605,12.239 5.613,12.093 5.708,12.009 L12.685,5.756 C12.78,5.671 12.925,5.679 13.01,5.773 L13.863,6.725 C13.947,6.82 13.939,6.965 13.845,7.05 L6.867,13.303 C6.773,13.388 6.627,13.379 6.543,13.285 z M11.999,0.003 C5.372,0.003 -0,5.375 -0,12.001 C-0,18.628 5.372,24 11.999,24 C18.625,24 23.997,18.628 23.997,12.001 C23.997,5.375 18.625,0.003 11.999,0.003" fill="#00576F"/>
    </g>
  </g>
</svg>