<svg id="Layer_1" data-name="Layer 1" xmlns="http://www.w3.org/2000/svg" viewBox="0 0 599.73 418.5"><defs><style>.cls-1{fill:#999;}.cls-2{font-size:16.5px;}.cls-15,.cls-17,.cls-2{font-family:Arial;}.cls-3{letter-spacing:1px;}.cls-4{letter-spacing:4px;}.cls-5{letter-spacing:6px;}.cls-6{font-size:22.5px;}.cls-11,.cls-6{font-family:Gill Sans MT;}.cls-11,.cls-15,.cls-17,.cls-6,.cls-8{font-weight:700;}.cls-7{fill:#0bff22;}.cls-16,.cls-8{font-size:39px;}.cls-8{fill:#084164;font-family:Bell MT;}.cls-9{white-space:pre;}.cls-10{letter-spacing:-2px;}.cls-11{font-size:15px;text-decoration:underline;}.cls-12{letter-spacing:-1px;}.cls-13{fill:#084165;}.cls-14{fill:#fff;}.cls-15{font-size:37.5px;}.cls-16{fill:#006837;}.cls-17{font-size:30px;}</style></defs><title>HE-banner-Ispor-Webinar-Salesforce</title><rect class="cls-1" x="44.87" width="510" height="418.5"/><text class="cls-2" transform="translate(60.88 230.22)">A<tspan x="10.09" y="0"> </tspan><tspan x="14.29" y="0">presentation</tspan><tspan x="105.1" y="0"> </tspan><tspan x="109.29" y="0">and</tspan><tspan x="136.82" y="0"> </tspan><tspan x="141.01" y="0">discussion</tspan><tspan x="218.05" y="0"> </tspan><tspan x="222.24" y="0">by</tspan><tspan x="239.67" y="0"> </tspan><tspan x="243.86" y="0">Mike</tspan><tspan x="278.7" y="0"> </tspan><tspan x="282.89" y="0">Cheung,</tspan><tspan x="345.27" y="0"> </tspan><tspan x="349.46" y="0">Chief</tspan><tspan x="387.98" y="0"> </tspan><tspan x="392.17" y="0">Science</tspan><tspan x="450.87" y="0"> </tspan><tspan x="455.06" y="0">Of</tspan><tspan x="472.48" y="0">-</tspan><tspan x="0" y="19.8">fice</tspan><tspan x="25.68" y="19.8">r</tspan><tspan x="30.26" y="19.8">,</tspan><tspan class="cls-3" x="34.85" y="19.8"> </tspan><tspan x="41.06" y="19.8">KDIGO,</tspan><tspan class="cls-3" x="98.81" y="19.8"> </tspan><tspan x="105.02" y="19.8">and</tspan><tspan class="cls-3" x="132.55" y="19.8"> </tspan><tspan x="138.76" y="19.8">Sandra</tspan><tspan class="cls-3" x="191.97" y="19.8"> </tspan><tspan x="198.18" y="19.8">Zelman</tspan><tspan class="cls-3" x="253.2" y="19.8"> </tspan><tspan x="259.41" y="19.8">Lewis,</tspan><tspan class="cls-3" x="306.18" y="19.8"> </tspan><tspan x="312.38" y="19.8">PhD,</tspan><tspan class="cls-3" x="349.07" y="19.8"> </tspan><tspan x="355.28" y="19.8">Chief</tspan><tspan class="cls-3" x="393.8" y="19.8"> </tspan><tspan x="400.01" y="19.8">Guidelines </tspan><tspan x="0" y="39.6">O</tspan><tspan x="12.83" y="39.6">f</tspan><tspan x="17.12" y="39.6">fice</tspan><tspan x="42.8" y="39.6">r</tspan><tspan x="47.38" y="39.6">,</tspan><tspan class="cls-4" x="51.97" y="39.6"> </tspan><tspan x="60.67" y="39.6">Doctor</tspan><tspan class="cls-4" x="109.27" y="39.6"> </tspan><tspan x="117.98" y="39.6">Evidence,</tspan><tspan class="cls-4" x="190.44" y="39.6"> </tspan><tspan x="199.15" y="39.6">co-authors</tspan><tspan class="cls-4" x="277.11" y="39.6"> </tspan><tspan x="285.81" y="39.6">of</tspan><tspan class="cls-4" x="299.58" y="39.6"> </tspan><tspan x="308.28" y="39.6">the</tspan><tspan class="cls-4" x="331.22" y="39.6"> </tspan><tspan x="339.93" y="39.6">recent</tspan><tspan class="cls-4" x="385.79" y="39.6"> </tspan><tspan x="394.5" y="39.6">publication: </tspan><tspan x="0" y="59.4">“Recommendations</tspan><tspan class="cls-5" x="143.06" y="59.4"> </tspan><tspan x="154.39" y="59.4">for</tspan><tspan class="cls-5" x="173.65" y="59.4"> </tspan><tspan x="184.97" y="59.4">kidney</tspan><tspan class="cls-5" x="232.67" y="59.4"> </tspan><tspan x="243.99" y="59.4">disease</tspan><tspan class="cls-5" x="300.87" y="59.4"> </tspan><tspan x="312.19" y="59.4">guideline</tspan><tspan class="cls-5" x="378.25" y="59.4"> </tspan><tspan x="389.58" y="59.4">updating:</tspan><tspan class="cls-5" x="457.47" y="59.4"> </tspan><tspan x="468.8" y="59.4">a </tspan><tspan x="0" y="79.2">report by the KDIGO Methods Committee”</tspan></text><text class="cls-6" transform="translate(65.15 204.39)">http://g<tspan x="75.42" y="0">r</tspan><tspan x="84.95" y="0">o</tspan><tspan x="97.53" y="0">wth</tspan><tspan x="137.34" y="0">e</tspan><tspan x="149.08" y="0">videnc</tspan><tspan x="216.55" y="0">e</tspan><tspan x="229.42" y="0">.com/g</tspan><tspan x="300.2" y="0">r</tspan><tspan x="309.73" y="0">o</tspan><tspan x="322.31" y="0">wth-</tspan><tspan x="369.61" y="0">w</tspan><tspan x="386.73" y="0">ebinars/</tspan></text><circle cx="34.81" cy="60.41"/><rect class="cls-7" x="44.87" y="106.8" width="510" height="68.9"/><text class="cls-8" transform="translate(56.57 142.52)"><tspan class="cls-9"> L</tspan><tspan x="34.73" y="0">i</tspan><tspan x="45.55" y="0">ving Guidelines </tspan><tspan class="cls-10" x="325.05" y="0">W</tspan><tspan x="364.29" y="0">e</tspan><tspan x="382.78" y="0">bina</tspan><tspan x="455.91" y="0">r</tspan><tspan x="471.24" y="0">: </tspan></text><text class="cls-11" transform="translate(61.05 161.28)">April 27<tspan class="cls-12" x="56.03" y="0">,</tspan><tspan class="cls-9" x="58.59" y="0"> 2016 at 12:00 pm </tspan><tspan x="186.87" y="0">P</tspan><tspan x="196.26" y="0">acifi</tspan><tspan x="224.38" y="0">c</tspan><tspan class="cls-12" x="232.18" y="0">,</tspan><tspan class="cls-9" x="234.74" y="0"> 2:00 pm Central</tspan><tspan class="cls-12" x="352.68" y="0">,</tspan><tspan class="cls-9" x="355.24" y="0">  3:00 pm Eastern</tspan></text><g id="Layer_12" data-name="Layer 12"><rect class="cls-13" x="60.87" y="15.5" width="479" height="82"/></g><g id="Layer_5" data-name="Layer 5"><path class="cls-14" d="M293.74,47c-2.92-18.42-18.55-32.52-37.46-32.5-20.93,0-37.88,17.28-37.87,38.57s17,38.54,37.93,38.52a38,38,0,0,0,35.75-25.8,16.2,16.2,0,0,1-3.24,1.7,13.66,13.66,0,0,1-4.47,1c-4.81,13-15.4,21.64-28,21.64-17.12,0-30.16-16.61-30.17-37.12s13-37.15,30.12-37.16c16.15,0,28.2,15.28,29.61,32.41,0.28,3.31-5,5.29-10.37,3.34l-0.09-.06c-2.85-1.75-4.23-4.15-6.21-1.58-1.33,1.73-2.81.18-3.84-2-1.11-2.37-2.24-3.89-4.45.69-1.13,2.34-1.54,4.29-2.76,3a7.38,7.38,0,0,0-.62-0.62c-0.11.49-1.55,2.86-1.82,3.5-0.26.21-2.67-31.16-2.86-31.68,0-.11-0.61,7-0.61,7L249.87,54c-0.59-1.44-1.1-1.5-2.8-1.41-1.24-5.64-2.46-2.45-4.14,0a3.53,3.53,0,0,1-1.7,1.28c-3.88.66-7.17,0.66-12.35-5-0.76,1,0,4.66.45,5.85,6.28,4.07,11.64,2.12,14.06-.53,0,0,0-.06,0-0.08,1.51-2.08,2.71-4.27,3.21.22,0,0.3,1-.21,1.82-0.13s0.95,2.19,1.18,3.4c0.18,1,.93.46,0.93,0.46L252.73,37c0.25,2.89,1.15,15.74,1.73,21.22,0.07,1.54,3.32-5.33,3.32-5.33,2.35,1.3,2,.37,3.44-2.53,1.69-3.53,3.61-2.67,4.42-.8,1.1,2.55,1.9,4.29,3.83,2.09,1.36-1.55,2.52-.89,3.62.13,5.62,6.37,21.34,3.18,20.68-3.62A4.71,4.71,0,0,0,293.74,47Z" transform="translate(44.87)"/></g><g id="Layer_4" data-name="Layer 4"><path class="cls-14" d="M311.78,75.17h-1.21q-1-3.46-3-9.44l-3.89-11.16a56.71,56.71,0,0,0-2.52-6.46,5,5,0,0,0-1.39-1.74,4.09,4.09,0,0,0-1.91-.57,0.45,0.45,0,0,1-.52-0.41,0.42,0.42,0,0,1,.52-0.44h10.78c0.67,0,1,.13,1,0.39s-0.22.5-.66,0.5q-2.72,0-2.72,2.59a12.3,12.3,0,0,0,.25,2,29.64,29.64,0,0,0,.85,3.32q0.61,2,2.61,8.08t2.56,7.51l4.4-13.59q1.89-5.77,1.89-7.26,0-2.41-2.67-2.66a0.46,0.46,0,0,1-.53-0.43,0.32,0.32,0,0,1,.2-0.33,4.4,4.4,0,0,1,1.14-.08h6.87a6,6,0,0,1,1.12.06,0.3,0.3,0,0,1,.2.33c0,0.28-.26.46-0.8,0.55A3.5,3.5,0,0,0,322,47.13a15.39,15.39,0,0,0-1.48,2.38q-0.71,1.39-3.8,11Q315.63,63.94,311.78,75.17Z" transform="translate(44.87)"/><path class="cls-14" d="M328.91,44.43l3.75,0.09,5.75-.09c0.69,0,1,.15,1,0.46a0.51,0.51,0,0,1-.55.43q-2.28.32-2.85,1.83t-0.57,11.18q0,3.55.17,8a43.87,43.87,0,0,0,.37,5.32,2.81,2.81,0,0,0,.78,1.42,4,4,0,0,0,2.14.78,0.47,0.47,0,0,1,.51.44,0.39,0.39,0,0,1-.47.41l-5.11,0-4.35.07c-0.48,0-.72-0.15-0.72-0.46a0.47,0.47,0,0,1,.58-0.48q1.91,0,2.24-1.42a61.51,61.51,0,0,0,.33-8.78q0-7.15-.12-11.57t-0.67-5.41a2.74,2.74,0,0,0-2.1-1.24,0.57,0.57,0,0,1-.58-0.53A0.37,0.37,0,0,1,328.91,44.43Z" transform="translate(44.87)"/><path class="cls-14" d="M352.27,44.69l4.24-.09q8,0,12.15,4.36a15.35,15.35,0,0,1,4.11,11,16.25,16.25,0,0,1-2,8.17,13.88,13.88,0,0,1-4.94,5.24A15.33,15.33,0,0,1,358,75.1q-1.11,0-2.82-.14-3-.27-3.42-0.27-6.74,0-7.94.16c-0.45,0-.68-0.13-0.68-0.39a0.35,0.35,0,0,1,.25-0.36,11.63,11.63,0,0,1,1.52-.27,3,3,0,0,0,2.32-1.47q0.67-1.21.83-7.57l0.33-12.13a31.34,31.34,0,0,0-.26-4.07,4.83,4.83,0,0,0-.8-2.52,3.11,3.11,0,0,0-1.74-.77c-0.58-.09-0.86-0.27-0.86-0.53a0.41,0.41,0,0,1,.43-0.48q0.41,0,2.52.19T352.27,44.69Zm-0.72,22.14a18.17,18.17,0,0,0,.36,4.32,3.82,3.82,0,0,0,1.54,2.13,6.7,6.7,0,0,0,3.8.84,9.05,9.05,0,0,0,6.06-2,13.08,13.08,0,0,0,3.63-5.25,18.67,18.67,0,0,0,1.31-7,17.28,17.28,0,0,0-3-9.88q-3-4.42-9.27-4.42a13.31,13.31,0,0,0-3.26.21,1.22,1.22,0,0,0-.46,1.22q0,0.89-.14,3.19-0.2,3.35-.27,5.23l-0.18,6.3Q351.54,66.19,351.55,66.83Z" transform="translate(44.87)"/><path class="cls-14" d="M398.78,44.94q0.6,2.57,1.17,7.2a0.28,0.28,0,0,1-.22.18,0.44,0.44,0,0,1-.31-0.18,18.53,18.53,0,0,0-2.72-3.87,8.31,8.31,0,0,0-2.6-1.89,12.58,12.58,0,0,0-4.5-.56,22.89,22.89,0,0,0-4.76.39,1.55,1.55,0,0,0-.16.85c0,0.11,0,.3,0,0.57q-0.2,1.83-.21,9.93c0,0.23,0,.55,0,1q1.56,0.07,2.14.07a6.39,6.39,0,0,0,3.75-.86,7.28,7.28,0,0,0,2-3.72,0.52,0.52,0,0,1,.41-0.48c0.26,0,.39.22,0.39,0.67l-0.08.92Q393,56.91,393,58.84q0,3.12.1,5.63,0,0.78-.38.78t-0.38-.55a6.28,6.28,0,0,0-1.81-3.9q-1.39-1.19-6-1.19-0.06,1.67-.06,5.41a35.84,35.84,0,0,0,.31,6.14,3.32,3.32,0,0,0,1.48,2.08,7.6,7.6,0,0,0,4,.77q8,0,10.33-6.14a0.94,0.94,0,0,1,.59-0.76c0.22,0,.33.17,0.33,0.5a1.93,1.93,0,0,1-.1.6q-0.12.44-.6,3.25-0.1.6-.78,3.58l-8.62,0q-1.85,0-5.44-.17t-6.35-.18a15.46,15.46,0,0,1-2.89-.13,0.34,0.34,0,0,1-.12-0.25c0-.31.23-0.46,0.68-0.46q2.28,0,3-1.35t0.72-6.57l0-4.7L381,56.8q0-1.33-.13-5t-0.25-4.22a2.14,2.14,0,0,0-.64-1,6,6,0,0,0-2.31-1,0.59,0.59,0,0,1-.54-0.5c0-.27.24-0.41,0.72-0.41L382,44.8q2.22,0.11,10.92.11Q398.66,44.92,398.78,44.94Z" transform="translate(44.87)"/><path class="cls-14" d="M411.2,44.82q1.23,1.86,4.28,5.75l6.58,8.5,6.33,8.16q0.2-4.15.21-10.77,0-5-.18-6.66A4.51,4.51,0,0,0,427,47a4.07,4.07,0,0,0-3-1.15c-0.55,0-.82-0.13-0.82-0.39a0.35,0.35,0,0,1,.17-0.33,17.25,17.25,0,0,1,2.77-.21q2.59-.1,4.36-0.1l2.78,0h0.45c0.43,0,.64.13,0.64,0.4a0.49,0.49,0,0,1-.55.42,4.87,4.87,0,0,0-3,1.2,4.47,4.47,0,0,0-1.09,2.74q-0.17,1.79-.17,12l-0.2,12.11c0,0.61-.14.92-0.41,0.92a0.63,0.63,0,0,1-.28-0.1,23.31,23.31,0,0,1-1.84-2.31q-1.67-2.21-4.1-5.31t-3.84-5q-3.06-4.15-3.87-5.11a38.8,38.8,0,0,1-3.52-4.54,1,1,0,0,0-.64-0.69q-0.22,0-.22.89l0,3.55q0,6.76.33,10.8a19.94,19.94,0,0,0,.69,4.73A4.55,4.55,0,0,0,413,73a3,3,0,0,0,1.9.71q1.36,0,1.36.55c0,0.28-.25.41-0.76,0.41l-9.89,0c-0.47,0-.7-0.13-0.7-0.39s0.23-.46.68-0.46q2.53,0,3.37-1.25t0.84-5.31l-0.17-8a52.49,52.49,0,0,0-.35-8.4,11.25,11.25,0,0,0-1.57-3.09,4.19,4.19,0,0,0-2.79-2.05q-0.7-.09-0.7-0.41c0-.29.3-0.44,0.9-0.44Z" transform="translate(44.87)"/><path class="cls-14" d="M458.87,46.57a7,7,0,0,0,1.3-1.51,0.68,0.68,0,0,1,.6-0.55c0.28,0,.43.27,0.45,0.82l0.45,8a3.73,3.73,0,0,1-.05.84,0.27,0.27,0,0,1-.3.15,1.29,1.29,0,0,1-.7-1,15.7,15.7,0,0,0-3.78-6,7.6,7.6,0,0,0-5.3-2.32,6.92,6.92,0,0,0-4.61,1.8A11.61,11.61,0,0,0,443.66,52a21.58,21.58,0,0,0-1.16,7.16q0,6.51,3.22,10.58t7.19,4.07a7.53,7.53,0,0,0,5-1.9,12.61,12.61,0,0,0,3.42-4.4,0.92,0.92,0,0,1,.64-0.69,0.45,0.45,0,0,1,.45.55,7.84,7.84,0,0,1-1.56,2.91,11.86,11.86,0,0,1-4.1,3.65,11.16,11.16,0,0,1-5.46,1.4,12.05,12.05,0,0,1-6.53-1.95A13.83,13.83,0,0,1,439.8,68,17.08,17.08,0,0,1,438,59.88a18.59,18.59,0,0,1,1.76-8.18,13.44,13.44,0,0,1,5-5.66,12.18,12.18,0,0,1,6.59-2,11.71,11.71,0,0,1,3.71.63A17.12,17.12,0,0,1,458.87,46.57Z" transform="translate(44.87)"/><path class="cls-14" d="M487.37,44.94q0.6,2.57,1.17,7.2a0.28,0.28,0,0,1-.22.18,0.44,0.44,0,0,1-.31-0.18,18.53,18.53,0,0,0-2.72-3.87,8.31,8.31,0,0,0-2.6-1.89,12.58,12.58,0,0,0-4.5-.56,22.89,22.89,0,0,0-4.76.39,1.55,1.55,0,0,0-.16.85c0,0.11,0,.3,0,0.57q-0.2,1.83-.21,9.93c0,0.23,0,.55,0,1q1.56,0.07,2.14.07a6.39,6.39,0,0,0,3.75-.86A7.28,7.28,0,0,0,481,54a0.52,0.52,0,0,1,.41-0.48c0.26,0,.39.22,0.39,0.67l-0.08.92q-0.16,1.81-.16,3.74,0,3.12.1,5.63,0,0.78-.38.78t-0.38-.55a6.28,6.28,0,0,0-1.81-3.9q-1.39-1.19-6-1.19Q473,61.28,473,65a35.84,35.84,0,0,0,.31,6.14,3.32,3.32,0,0,0,1.48,2.08,7.6,7.6,0,0,0,4,.77q8,0,10.33-6.14a0.94,0.94,0,0,1,.59-0.76c0.22,0,.33.17,0.33,0.5a1.93,1.93,0,0,1-.1.6q-0.12.44-.6,3.25-0.1.6-.78,3.58l-8.62,0q-1.85,0-5.44-.17t-6.35-.18a15.46,15.46,0,0,1-2.89-.13,0.34,0.34,0,0,1-.12-0.25c0-.31.23-0.46,0.68-0.46q2.28,0,3-1.35t0.72-6.57l0-4.7,0.06-4.4q0-1.33-.13-5t-0.25-4.22a2.14,2.14,0,0,0-.64-1,6,6,0,0,0-2.31-1,0.59,0.59,0,0,1-.54-0.5c0-.27.24-0.41,0.72-0.41l4.2,0.25q2.22,0.11,10.92.11Q487.24,44.92,487.37,44.94Z" transform="translate(44.87)"/></g><g id="Layer_2" data-name="Layer 2"><path class="cls-14" d="M32.15,43.36l4.62-.09q8.78,0,13.27,4.35a14.65,14.65,0,0,1,4.49,11,15.17,15.17,0,0,1-2.15,8.17A14.49,14.49,0,0,1,47,72a18,18,0,0,1-8.62,1.77q-1.21,0-3.08-.14-3.32-.27-3.73-0.27-7.36,0-8.66.16-0.74,0-.74-0.39a0.35,0.35,0,0,1,.27-0.36,13.78,13.78,0,0,1,1.66-.27A3.27,3.27,0,0,0,26.62,71q0.73-1.21.91-7.57l0.36-12.13a28.68,28.68,0,0,0-.28-4.07,4.58,4.58,0,0,0-.88-2.52,3.53,3.53,0,0,0-1.9-.77q-0.94-.14-0.94-0.53A0.42,0.42,0,0,1,24.36,43q0.45,0,2.75.2T32.15,43.36ZM31.36,65.5a16.6,16.6,0,0,0,.39,4.32,3.84,3.84,0,0,0,1.68,2.13,7.86,7.86,0,0,0,4.14.84,10.49,10.49,0,0,0,6.62-2,13.11,13.11,0,0,0,4-5.25,17.27,17.27,0,0,0,1.43-7,16.27,16.27,0,0,0-3.25-9.88Q43.08,44.3,36.21,44.3a15.71,15.71,0,0,0-3.56.21,1.17,1.17,0,0,0-.5,1.21q0,0.9-.16,3.19-0.22,3.35-.29,5.22l-0.2,6.3Q31.36,64.85,31.36,65.5Z" transform="translate(44.87)"/><path class="cls-14" d="M58.5,58.14a15.43,15.43,0,0,1,1.84-6.8,15.82,15.82,0,0,1,5.38-6.11,13.85,13.85,0,0,1,8-2.41A13.17,13.17,0,0,1,84,47.37,15.12,15.12,0,0,1,88,57.73a16,16,0,0,1-4.49,11.1,14.11,14.11,0,0,1-10.8,4.92A13.42,13.42,0,0,1,62.6,69.44Q58.5,65.13,58.5,58.14Zm5-.75a27.9,27.9,0,0,0,1.12,7.67,10.34,10.34,0,0,0,3.52,5.71,8.47,8.47,0,0,0,5.13,1.78q4.42,0,7.07-4.39A19.26,19.26,0,0,0,83,58a17.81,17.81,0,0,0-2.71-9.83q-2.71-4.23-7.09-4.23a7.34,7.34,0,0,0-5.49,2.26,13.57,13.57,0,0,0-3.21,5.4A19.07,19.07,0,0,0,63.5,57.4Z" transform="translate(44.87)"/><path class="cls-14" d="M115,45.24a7.29,7.29,0,0,0,1.42-1.51,0.72,0.72,0,0,1,.65-0.55q0.45,0,.49.83l0.49,8a3.45,3.45,0,0,1-.06.84,0.31,0.31,0,0,1-.33.15,1.31,1.31,0,0,1-.76-1,15.62,15.62,0,0,0-4.13-6A8.68,8.68,0,0,0,107,43.7a8,8,0,0,0-5,1.8,11.55,11.55,0,0,0-3.56,5.13,20,20,0,0,0-1.27,7.16q0,6.51,3.51,10.58t7.85,4.07a8.67,8.67,0,0,0,5.41-1.9,12.81,12.81,0,0,0,3.73-4.4,1,1,0,0,1,.7-0.69,0.46,0.46,0,0,1,.49.55q0,0.67-1.71,2.91a12.66,12.66,0,0,1-4.48,3.64,13.06,13.06,0,0,1-6,1.4A14,14,0,0,1,99.56,72a14.34,14.34,0,0,1-5.35-5.38,15.9,15.9,0,0,1-2-8.07,17.27,17.27,0,0,1,1.92-8.18,13.86,13.86,0,0,1,5.4-5.66,14.16,14.16,0,0,1,7.19-2,13.81,13.81,0,0,1,4,.63A19.29,19.29,0,0,1,115,45.24Z" transform="translate(44.87)"/><path class="cls-14" d="M133.78,44.6q-1.75-.09-2.47-0.09-4.85,0-7,2.07a8,8,0,0,0-2.54,3.68,0.59,0.59,0,0,1-.6.58,0.57,0.57,0,0,1-.42-0.22,64.18,64.18,0,0,1,.88-7.36l1.37,0q1.75,0,4.69.18,3.16,0.18,9.7.18,6.69,0,8.71-.16,1.84-.18,5.05-0.18a31.11,31.11,0,0,1,.36,3.44q0.13,2,.27,2.86a3.28,3.28,0,0,1,0,.39,0.45,0.45,0,0,1-.47.55,0.64,0.64,0,0,1-.48-0.19,10.89,10.89,0,0,1-.86-1.3,10.44,10.44,0,0,0-2.43-2.81A6.47,6.47,0,0,0,144.72,45a50.33,50.33,0,0,0-6.27-.37q-0.27,3.46-.27,7.91,0,14.72.62,17.35t4.41,2.63c0.61,0,.92.13,0.92,0.39s-0.29.46-.88,0.46h-13.8a0.44,0.44,0,0,1-.54-0.44c0-.29.35-0.43,1.05-0.43a4,4,0,0,0,2.86-1,4.19,4.19,0,0,0,1.26-2.76q0.17-1.74.17-10.06Q134.25,51.52,133.78,44.6Z" transform="translate(44.87)"/><path class="cls-14" d="M153.83,58.14a15.43,15.43,0,0,1,1.84-6.8A15.82,15.82,0,0,1,161,45.24a13.85,13.85,0,0,1,8-2.41,13.17,13.17,0,0,1,10.27,4.54,15.12,15.12,0,0,1,4.05,10.36,16,16,0,0,1-4.49,11.1,14.11,14.11,0,0,1-10.8,4.92,13.42,13.42,0,0,1-10.13-4.31Q153.82,65.13,153.83,58.14Zm5-.75A27.9,27.9,0,0,0,160,65.07a10.34,10.34,0,0,0,3.52,5.71,8.47,8.47,0,0,0,5.13,1.78q4.42,0,7.07-4.39A19.26,19.26,0,0,0,178.34,58a17.81,17.81,0,0,0-2.71-9.83q-2.71-4.23-7.09-4.23A7.34,7.34,0,0,0,163,46.19a13.57,13.57,0,0,0-3.21,5.4A19.07,19.07,0,0,0,158.83,57.4Z" transform="translate(44.87)"/><path class="cls-14" d="M204.49,58a11.65,11.65,0,0,1,4.34,2.88,10.42,10.42,0,0,1,1.8,4.65q0.75,4.12,2.1,5.55a4.93,4.93,0,0,0,3.51,1.51c0.4,0,.6.18,0.6,0.45s-0.23.4-.7,0.4q-6.29,0-7.62-.43t-2-4.68a36.25,36.25,0,0,0-1.27-6.06,5.77,5.77,0,0,0-2.11-2.93,8,8,0,0,0-4.52-1,16,16,0,0,0-2.65.25q-0.11,1.44-.11,3,0,5.88.16,7.61a3.94,3.94,0,0,0,1,2.52,3.83,3.83,0,0,0,2.66.83c0.54,0,.81.15,0.81,0.4s-0.33.45-1,.45H188.35c-0.64,0-1-.15-1-0.45s0.25-.4.76-0.4a3.92,3.92,0,0,0,2.37-.53,3.49,3.49,0,0,0,1-1.63,14.22,14.22,0,0,0,.38-4l0-4.67,0-7.12a69,69,0,0,0-.24-7.21,4.24,4.24,0,0,0-.84-2.37,5.54,5.54,0,0,0-2.8-1,0.43,0.43,0,0,1-.47-0.39c0-.24.31-0.37,0.94-0.37l13.29-.3q5.5,0,8,2.15a6.88,6.88,0,0,1,1.48,8.86,6.35,6.35,0,0,1-2.37,2.36A27.12,27.12,0,0,1,204.49,58ZM196,57.38a32.33,32.33,0,0,0,6.46-.62,6.86,6.86,0,0,0,3.67-2.32,6.34,6.34,0,0,0,1.51-4.24A6.63,6.63,0,0,0,206,45.7q-1.68-1.92-5.39-1.92a20.49,20.49,0,0,0-4.46.55q-0.27,6.3-.27,10C195.83,55.22,195.88,56.22,196,57.38Z" transform="translate(44.87)"/></g><path class="cls-14" d="M452,52.11a4,4,0,0,1,2.35.8,5.36,5.36,0,0,1,1.8,2.29,7.73,7.73,0,0,1,.66,3.17,7.05,7.05,0,0,1-1.41,4.43,4.06,4.06,0,0,1-6.8,0,7.64,7.64,0,0,1,0-8.86A4.19,4.19,0,0,1,452,52.11Zm0,0.54a3.67,3.67,0,0,0-2.14.73,4.93,4.93,0,0,0-1.64,2.1,7.06,7.06,0,0,0-.6,2.89,6.45,6.45,0,0,0,1.28,4,3.71,3.71,0,0,0,6.21,0,6.43,6.43,0,0,0,1.29-4,7.06,7.06,0,0,0-.61-2.89,4.91,4.91,0,0,0-1.64-2.1A3.68,3.68,0,0,0,452,52.65Zm-2.66,1.87h2.62a2,2,0,0,1,1.47.55,2.14,2.14,0,0,1,.17,2.64,2.3,2.3,0,0,1-1.13.75l1.41,2.63a2.58,2.58,0,0,0,.41.6,0.65,0.65,0,0,0,.41.18v0.3h-1.25l-2-3.58h-0.52v2.74a0.85,0.85,0,0,0,.16.38,0.84,0.84,0,0,0,.64.16v0.3h-2.49v-0.3a0.8,0.8,0,0,0,.48-0.11,0.49,0.49,0,0,0,.19-0.29,5.38,5.38,0,0,0,0-.81V56a6.42,6.42,0,0,0,0-.78,0.48,0.48,0,0,0-.16-0.28,0.68,0.68,0,0,0-.44-0.13V54.52Zm1.61,3.68h0.2a1.77,1.77,0,0,0,1.29-.43,1.57,1.57,0,0,0,.44-1.17,1.88,1.88,0,0,0-.38-1.21,1.2,1.2,0,0,0-1-.48,1.38,1.38,0,0,0-.57.13V58.2Z" transform="translate(44.87)"/><path class="cls-14" d="M295.22,91.85v-9.5h-3.75V81.08h9v1.27h-3.76v9.5h-1.5Z" transform="translate(44.87)"/><path class="cls-14" d="M306.66,91.85V90.7A3.06,3.06,0,0,1,304,92a3.5,3.5,0,0,1-1.36-.26,2.24,2.24,0,0,1-.94-0.66,2.43,2.43,0,0,1-.43-1,6.32,6.32,0,0,1-.09-1.23V84h1.4v4.33a7.27,7.27,0,0,0,.09,1.4,1.36,1.36,0,0,0,.56.82,1.78,1.78,0,0,0,1.06.3,2.4,2.4,0,0,0,1.18-.3,1.73,1.73,0,0,0,.78-0.83,4,4,0,0,0,.23-1.52V84h1.4v7.8h-1.25Z" transform="translate(44.87)"/><path class="cls-14" d="M310.08,91.85V84h1.26v1.18a3.27,3.27,0,0,1,.89-1.09,1.61,1.61,0,0,1,.9-0.26,2.84,2.84,0,0,1,1.44.43l-0.48,1.23a2.08,2.08,0,0,0-1-.29,1.37,1.37,0,0,0-.82.26,1.42,1.42,0,0,0-.52.72,4.92,4.92,0,0,0-.23,1.54v4.09h-1.4Z" transform="translate(44.87)"/><path class="cls-14" d="M315.39,91.85V84h1.26v1.11a3,3,0,0,1,2.62-1.29,3.63,3.63,0,0,1,1.37.25,2.14,2.14,0,0,1,.93.67,2.47,2.47,0,0,1,.43,1,7.2,7.2,0,0,1,.08,1.29v4.8h-1.4V87.1a3.37,3.37,0,0,0-.16-1.21,1.3,1.3,0,0,0-.58-0.64,1.93,1.93,0,0,0-1-.24,2.34,2.34,0,0,0-1.54.54,2.56,2.56,0,0,0-.65,2v4.26h-1.4Z" transform="translate(44.87)"/><path class="cls-14" d="M324.23,82.6V81.08h1.4V82.6h-1.4Zm0,9.25V84h1.4v7.8h-1.4Z" transform="translate(44.87)"/><path class="cls-14" d="M327.75,91.85V84H329v1.11a3,3,0,0,1,2.62-1.29,3.63,3.63,0,0,1,1.37.25,2.14,2.14,0,0,1,.93.67,2.47,2.47,0,0,1,.43,1,7.2,7.2,0,0,1,.08,1.29v4.8H333V87.1a3.37,3.37,0,0,0-.16-1.21,1.3,1.3,0,0,0-.58-0.64,1.93,1.93,0,0,0-1-.24,2.34,2.34,0,0,0-1.54.54,2.56,2.56,0,0,0-.65,2v4.26h-1.4Z" transform="translate(44.87)"/><path class="cls-14" d="M336.33,92.5l1.36,0.19a1.21,1.21,0,0,0,.47.87,2.42,2.42,0,0,0,1.42.37,2.6,2.6,0,0,0,1.5-.37,1.8,1.8,0,0,0,.71-1,8,8,0,0,0,.1-1.7,2.94,2.94,0,0,1-2.28,1A3.17,3.17,0,0,1,337,90.69a4.32,4.32,0,0,1-.93-2.78,4.94,4.94,0,0,1,.43-2.06,3.26,3.26,0,0,1,1.24-1.46,3.48,3.48,0,0,1,1.9-.51A3,3,0,0,1,342,85V84h1.29v6.75a6.09,6.09,0,0,1-.39,2.58,2.79,2.79,0,0,1-1.24,1.2,4.51,4.51,0,0,1-2.09.44,4.12,4.12,0,0,1-2.38-.63A2.08,2.08,0,0,1,336.33,92.5Zm1.16-4.69a3.26,3.26,0,0,0,.64,2.24,2.09,2.09,0,0,0,1.61.71,2.12,2.12,0,0,0,1.61-.7,3.16,3.16,0,0,0,.65-2.2,3.09,3.09,0,0,0-.67-2.16,2.13,2.13,0,0,0-1.62-.73,2.07,2.07,0,0,0-1.58.72A3.08,3.08,0,0,0,337.49,87.81Z" transform="translate(44.87)"/><path class="cls-14" d="M355.18,91.85v-1a2.6,2.6,0,0,1-2.3,1.16,3.37,3.37,0,0,1-1.81-.51,3.43,3.43,0,0,1-1.28-1.44,4.74,4.74,0,0,1-.45-2.12,5.3,5.3,0,0,1,.41-2.12A3.11,3.11,0,0,1,351,84.38a3.43,3.43,0,0,1,1.84-.51,2.89,2.89,0,0,1,1.33.3,2.74,2.74,0,0,1,.95.78V81.08h1.39V91.85h-1.3ZM350.76,88a3.26,3.26,0,0,0,.67,2.24,2.05,2.05,0,0,0,1.57.74,2,2,0,0,0,1.56-.71,3.15,3.15,0,0,0,.64-2.16,3.53,3.53,0,0,0-.65-2.35,2,2,0,0,0-1.61-.75,2,2,0,0,0-1.55.72A3.42,3.42,0,0,0,350.76,88Z" transform="translate(44.87)"/><path class="cls-14" d="M364,90.89a5.25,5.25,0,0,1-1.49.88A4.51,4.51,0,0,1,361,92a3.1,3.1,0,0,1-2.09-.63,2.13,2.13,0,0,1-.45-2.65,2.19,2.19,0,0,1,.72-0.76,3.49,3.49,0,0,1,1-.43,10.3,10.3,0,0,1,1.24-.2,13.42,13.42,0,0,0,2.49-.46c0-.18,0-0.3,0-0.35a1.41,1.41,0,0,0-.4-1.14,2.43,2.43,0,0,0-1.59-.45,2.56,2.56,0,0,0-1.45.33,2,2,0,0,0-.7,1.16l-1.37-.18a3.14,3.14,0,0,1,.61-1.34,2.69,2.69,0,0,1,1.23-.78,5.74,5.74,0,0,1,1.87-.28,5.19,5.19,0,0,1,1.71.24,2.29,2.29,0,0,1,1,.59,2,2,0,0,1,.43.9,7,7,0,0,1,.07,1.22v1.76a17.53,17.53,0,0,0,.09,2.33,2.81,2.81,0,0,0,.35.94h-1.46A2.74,2.74,0,0,1,364,90.89Zm-0.12-3a10.72,10.72,0,0,1-2.28.5,5.47,5.47,0,0,0-1.22.26,1.2,1.2,0,0,0-.55.43,1.08,1.08,0,0,0-.19.63,1.1,1.1,0,0,0,.42.88,1.89,1.89,0,0,0,1.24.35,3,3,0,0,0,1.43-.33,2.12,2.12,0,0,0,.92-0.92,3,3,0,0,0,.22-1.32V87.93Z" transform="translate(44.87)"/><path class="cls-14" d="M370.55,90.67l0.2,1.17a5.49,5.49,0,0,1-1.06.12,2.5,2.5,0,0,1-1.18-.23,1.3,1.3,0,0,1-.59-0.6,4.49,4.49,0,0,1-.17-1.56V85.08h-1V84h1V82.12l1.39-.79V84h1.4v1h-1.4v4.56a2.16,2.16,0,0,0,.07.73,0.56,0.56,0,0,0,.24.26,1,1,0,0,0,.48.1A4.86,4.86,0,0,0,370.55,90.67Z" transform="translate(44.87)"/><path class="cls-14" d="M377.29,90.89a5.25,5.25,0,0,1-1.49.88,4.51,4.51,0,0,1-1.54.26,3.1,3.1,0,0,1-2.09-.63,2.13,2.13,0,0,1-.45-2.65,2.19,2.19,0,0,1,.72-0.76,3.49,3.49,0,0,1,1-.43,10.3,10.3,0,0,1,1.24-.2,13.42,13.42,0,0,0,2.49-.46c0-.18,0-0.3,0-0.35a1.41,1.41,0,0,0-.4-1.14A2.43,2.43,0,0,0,375.2,85a2.56,2.56,0,0,0-1.45.33,2,2,0,0,0-.7,1.16l-1.37-.18a3.14,3.14,0,0,1,.61-1.34,2.69,2.69,0,0,1,1.23-.78,5.74,5.74,0,0,1,1.87-.28,5.19,5.19,0,0,1,1.71.24,2.29,2.29,0,0,1,1,.59,2,2,0,0,1,.43.9,7,7,0,0,1,.07,1.22v1.76a17.53,17.53,0,0,0,.09,2.33,2.81,2.81,0,0,0,.35.94h-1.46A2.74,2.74,0,0,1,377.29,90.89Zm-0.12-3a10.72,10.72,0,0,1-2.28.5,5.47,5.47,0,0,0-1.22.26,1.2,1.2,0,0,0-.55.43,1.08,1.08,0,0,0-.19.63,1.1,1.1,0,0,0,.42.88,1.89,1.89,0,0,0,1.24.35,3,3,0,0,0,1.43-.33,2.12,2.12,0,0,0,.92-0.92,3,3,0,0,0,.22-1.32V87.93Z" transform="translate(44.87)"/><path class="cls-14" d="M385.17,82.6V81.08h1.4V82.6h-1.4Zm0,9.25V84h1.4v7.8h-1.4Z" transform="translate(44.87)"/><path class="cls-14" d="M388.69,91.85V84H390v1.11a3,3,0,0,1,2.62-1.29,3.63,3.63,0,0,1,1.37.25,2.14,2.14,0,0,1,.93.67,2.47,2.47,0,0,1,.43,1,7.2,7.2,0,0,1,.08,1.29v4.8H394V87.1a3.37,3.37,0,0,0-.16-1.21,1.3,1.3,0,0,0-.58-0.64,1.93,1.93,0,0,0-1-.24,2.34,2.34,0,0,0-1.54.54,2.56,2.56,0,0,0-.65,2v4.26h-1.4Z" transform="translate(44.87)"/><path class="cls-14" d="M400.58,90.67l0.2,1.17a5.49,5.49,0,0,1-1.06.12,2.5,2.5,0,0,1-1.18-.23,1.3,1.3,0,0,1-.59-0.6,4.49,4.49,0,0,1-.17-1.56V85.08h-1V84h1V82.12l1.39-.79V84h1.4v1h-1.4v4.56a2.16,2.16,0,0,0,.07.73,0.56,0.56,0,0,0,.24.26,1,1,0,0,0,.48.1A4.86,4.86,0,0,0,400.58,90.67Z" transform="translate(44.87)"/><path class="cls-14" d="M401.42,87.95a3.91,3.91,0,0,1,1.27-3.21,4,4,0,0,1,2.59-.87,3.8,3.8,0,0,1,2.78,1.06,3.89,3.89,0,0,1,1.08,2.91,4.91,4.91,0,0,1-.48,2.37,3.28,3.28,0,0,1-1.39,1.34,4.21,4.21,0,0,1-2,.48,3.81,3.81,0,0,1-2.8-1.05A4.06,4.06,0,0,1,401.42,87.95Zm1.43,0a3.2,3.2,0,0,0,.69,2.24,2.38,2.38,0,0,0,3.47,0,3.28,3.28,0,0,0,.69-2.29,3.11,3.11,0,0,0-.69-2.19,2.39,2.39,0,0,0-3.46,0A3.19,3.19,0,0,0,402.86,87.95Z" transform="translate(44.87)"/><path class="cls-14" d="M415.2,91.85V81.08h1.4v6.14L419.9,84h1.81l-3.15,2.89L422,91.85H420.3l-2.72-4-1,.9v3.09h-1.4Z" transform="translate(44.87)"/><path class="cls-14" d="M423.13,91.85V84h1.26v1.11A3,3,0,0,1,427,83.87a3.63,3.63,0,0,1,1.37.25,2.14,2.14,0,0,1,.93.67,2.47,2.47,0,0,1,.43,1,7.2,7.2,0,0,1,.08,1.29v4.8h-1.4V87.1a3.37,3.37,0,0,0-.16-1.21,1.3,1.3,0,0,0-.58-0.64,1.93,1.93,0,0,0-1-.24,2.34,2.34,0,0,0-1.54.54,2.56,2.56,0,0,0-.65,2v4.26h-1.4Z" transform="translate(44.87)"/><path class="cls-14" d="M431.45,87.95a3.91,3.91,0,0,1,1.27-3.21,4,4,0,0,1,2.59-.87,3.8,3.8,0,0,1,2.78,1.06,3.89,3.89,0,0,1,1.08,2.91,4.91,4.91,0,0,1-.48,2.37,3.28,3.28,0,0,1-1.39,1.34,4.21,4.21,0,0,1-2,.48,3.81,3.81,0,0,1-2.8-1.05A4.06,4.06,0,0,1,431.45,87.95Zm1.43,0a3.2,3.2,0,0,0,.69,2.24,2.38,2.38,0,0,0,3.47,0,3.28,3.28,0,0,0,.69-2.29,3.11,3.11,0,0,0-.69-2.19,2.39,2.39,0,0,0-3.46,0A3.19,3.19,0,0,0,432.88,87.95Z" transform="translate(44.87)"/><path class="cls-14" d="M442.32,91.85L439.8,84h1.44l1.31,4.5L443,90.23l0.43-1.61L444.78,84h1.44l1.23,4.53,0.41,1.49,0.47-1.51L449.75,84h1.36l-2.57,7.8h-1.45l-1.31-4.67-0.32-1.33-1.67,6h-1.46Z" transform="translate(44.87)"/><path class="cls-14" d="M452.24,91.85V81.08h1.4V91.85h-1.4Z" transform="translate(44.87)"/><path class="cls-14" d="M461.44,89.34l1.44,0.17a3.33,3.33,0,0,1-1.27,1.86,4,4,0,0,1-2.36.66A3.88,3.88,0,0,1,456.4,91a4,4,0,0,1-1.06-3A4.17,4.17,0,0,1,456.41,85a3.73,3.73,0,0,1,2.78-1.09,3.62,3.62,0,0,1,2.7,1.07,4.09,4.09,0,0,1,1,3c0,0.08,0,.2,0,0.35h-6.14a2.91,2.91,0,0,0,.77,2,2.35,2.35,0,0,0,1.72.68,2.22,2.22,0,0,0,1.31-.38A2.53,2.53,0,0,0,461.44,89.34Zm-4.58-2.14h4.6a2.55,2.55,0,0,0-.53-1.48A2.19,2.19,0,0,0,459.2,85a2.28,2.28,0,0,0-1.62.61A2.36,2.36,0,0,0,456.86,87.2Z" transform="translate(44.87)"/><path class="cls-14" d="M470,91.85v-1a2.6,2.6,0,0,1-2.3,1.16,3.37,3.37,0,0,1-1.81-.51,3.43,3.43,0,0,1-1.28-1.44,4.74,4.74,0,0,1-.45-2.12,5.3,5.3,0,0,1,.41-2.12,3.11,3.11,0,0,1,1.23-1.46,3.43,3.43,0,0,1,1.84-.51,2.89,2.89,0,0,1,1.33.3,2.74,2.74,0,0,1,.95.78V81.08h1.39V91.85H470ZM465.57,88a3.26,3.26,0,0,0,.67,2.24,2.05,2.05,0,0,0,1.57.74,2,2,0,0,0,1.56-.71,3.15,3.15,0,0,0,.64-2.16,3.53,3.53,0,0,0-.65-2.35,2,2,0,0,0-1.61-.75,2,2,0,0,0-1.55.72A3.42,3.42,0,0,0,465.57,88Z" transform="translate(44.87)"/><path class="cls-14" d="M473.22,92.5l1.36,0.19a1.21,1.21,0,0,0,.47.87,2.42,2.42,0,0,0,1.42.37,2.6,2.6,0,0,0,1.5-.37,1.8,1.8,0,0,0,.71-1,8,8,0,0,0,.1-1.7,2.94,2.94,0,0,1-2.28,1,3.17,3.17,0,0,1-2.63-1.16,4.32,4.32,0,0,1-.93-2.78,4.94,4.94,0,0,1,.43-2.06,3.26,3.26,0,0,1,1.24-1.46,3.48,3.48,0,0,1,1.9-.51A3,3,0,0,1,478.91,85V84h1.29v6.75a6.09,6.09,0,0,1-.39,2.58,2.79,2.79,0,0,1-1.24,1.2,4.51,4.51,0,0,1-2.09.44,4.12,4.12,0,0,1-2.38-.63A2.08,2.08,0,0,1,473.22,92.5Zm1.16-4.69a3.26,3.26,0,0,0,.64,2.24,2.09,2.09,0,0,0,1.61.71,2.12,2.12,0,0,0,1.61-.7,3.16,3.16,0,0,0,.65-2.2,3.09,3.09,0,0,0-.67-2.16,2.13,2.13,0,0,0-1.62-.73,2.07,2.07,0,0,0-1.58.72A3.08,3.08,0,0,0,474.37,87.81Z" transform="translate(44.87)"/><path class="cls-14" d="M487.95,89.34l1.44,0.17a3.33,3.33,0,0,1-1.27,1.86,4,4,0,0,1-2.36.66A3.88,3.88,0,0,1,482.9,91a4,4,0,0,1-1.06-3A4.17,4.17,0,0,1,482.91,85a3.73,3.73,0,0,1,2.78-1.09,3.62,3.62,0,0,1,2.7,1.07,4.09,4.09,0,0,1,1,3c0,0.08,0,.2,0,0.35h-6.14a2.91,2.91,0,0,0,.77,2,2.35,2.35,0,0,0,1.72.68,2.22,2.22,0,0,0,1.31-.38A2.53,2.53,0,0,0,487.95,89.34Zm-4.58-2.14H488a2.55,2.55,0,0,0-.53-1.48,2.19,2.19,0,0,0-1.73-.76,2.28,2.28,0,0,0-1.62.61A2.36,2.36,0,0,0,483.36,87.2Z" transform="translate(44.87)"/><rect class="cls-14" x="47.87" y="322.45" width="504" height="86.26"/><text class="cls-15" transform="translate(92.45 398.67)">Join us at <tspan class="cls-16" x="185.45" y="0">ISPOR 2016</tspan><tspan x="404.41" y="0"> </tspan></text><text class="cls-17" transform="translate(80.81 355.68)">Not able to make the webinar?</text></svg>