<?xml version="1.0" encoding="utf-8"?>
<!-- Generator: Adobe Illustrator 21.0.2, SVG Export Plug-In . SVG Version: 6.00 Build 0)  -->
<svg version="1.1" xmlns="http://www.w3.org/2000/svg" xmlns:xlink="http://www.w3.org/1999/xlink" x="0px" y="0px"
	 viewBox="0 0 240 234" enable-background="new 0 0 240 234" xml:space="preserve">
<g id="mnemonic">
	<g>
		<radialGradient id="SVGID_1_" cx="3969.2114" cy="3952.7866" r="143.432" gradientUnits="userSpaceOnUse">
			<stop  offset="0" style="stop-color:#1D0F0B;stop-opacity:0.85"/>
			<stop  offset="0.7669" style="stop-color:#1D0F0B"/>
		</radialGradient>
		<rect x="3881.5" y="3881.5" fill-rule="evenodd" clip-rule="evenodd" fill="url(#SVGID_1_)" width="220" height="214"/>
	</g>
	<g>
		<rect x="10" y="10" fill-rule="evenodd" clip-rule="evenodd" fill="#260000" width="220" height="214"/>
	</g>
	<g>
		<path fill-rule="evenodd" clip-rule="evenodd" fill="#FF3500" d="M0,0v234h240V0H0z M10,10h220v214H10V10z"/>
	</g>
</g>
<g id="Layer_2">
	<g>
		<polygon fill-rule="evenodd" clip-rule="evenodd" fill="#FF3500" points="45.7,100.2 45.7,131.7 59.2,153.5 72.8,131.7 
			72.8,100.2 		"/>
		<rect x="44.7" y="169.5" fill="#FF3500" width="150" height="4"/>
		<g>
			<path fill="#FFD0CC" d="M88.4,154.4c-1.1,0-2.1-0.2-3.1-0.7c-2.7-1.4-4-3.8-3.5-6.8c1.5-9.4,20.9-24.8,39.3-33.3
				c7.4-10.7,26-38.1,21.8-45c-0.8-1.4-3-1.9-6.3-1.5C122,69,95.2,90,94.3,100.3c-0.1,1.7,0.2,3.7,4.5,5c1.1,0.3,1.7,1.5,1.4,2.6
				c-0.3,1.1-1.5,1.7-2.6,1.4c-7-2.1-7.7-6.7-7.5-9.3c1-11.5,27.7-34.7,45.9-36.9c5.2-0.6,8.6,0.5,10.4,3.4
				c3.8,6.2-1.6,19.3-18.4,44.3c3.6-1.3,7.1-2.3,10.3-2.7c2.5-0.4,3.6,0.8,4.1,1.6c1.1,1.9,1.1,7.4-9.8,24.3
				c6.7-3.8,16.5-9.1,25.8-13.1c2.4-1,4.2-0.9,5.2,0.5c0.8,1,2.5,3.3-8.2,17.1c9.4-3.1,26.2-7.5,37.7-4.1c1.1,0.3,1.7,1.5,1.4,2.6
				c-0.3,1.1-1.5,1.7-2.6,1.4c-15.1-4.4-41.8,6.4-42.1,6.5c-0.9,0.4-1.9,0.1-2.5-0.7c-0.6-0.8-0.5-1.8,0.1-2.6
				c4.9-5.9,10.1-13.1,11.9-16.6c-15.5,6.7-32.4,17.1-32.6,17.2c-0.8,0.5-1.9,0.4-2.6-0.3c-0.7-0.7-0.8-1.8-0.2-2.6
				c8.4-11.9,14.9-23.8,14.9-27c-4.7,0.7-9.8,2.4-15,4.6c-0.1,0.1-0.2,0.3-0.3,0.4C108.7,138.8,97.2,154.4,88.4,154.4z M116.2,120.7
				c-15.5,8.5-29.4,20.8-30.3,26.9c-0.2,1.2,0.1,1.8,1.2,2.4C92.8,152.8,105.9,135.3,116.2,120.7z M139.3,112.2L139.3,112.2
				L139.3,112.2z"/>
		</g>
	</g>
</g>
</svg>